<svg xmlns="http://www.w3.org/2000/svg" viewBox="0 0 321 131"><title>Asset 35</title><g id="Layer_2" data-name="Layer 2"><g id="Layer_1-2" data-name="Layer 1"><path d="M2,12A10,10,0,0,1,12,2H309a10,10,0,0,1,10,10V80.75a10,10,0,0,1-9.22,10l-11.48.9A10,10,0,0,0,290.8,96l-22.18,32.83a.4.4,0,0,1-.33.18.41.41,0,0,1-.39-.27l-10.08-28.65a10,10,0,0,0-9.3-6.68L11.86,90.14A10,10,0,0,1,2,80.14Z" fill="#fff"/><path d="M257.82,100.08a10,10,0,0,0-9.3-6.68L11.86,90.14A10,10,0,0,1,2,80.14V12A10,10,0,0,1,12,2H309a10,10,0,0,1,10,10V80.75a10,10,0,0,1-9.22,10l-11.48.9A10,10,0,0,0,290.8,96l-22.18,32.83a.4.4,0,0,1-.33.18.41.41,0,0,1-.39-.27ZM12,0H309a12,12,0,0,1,12,12V80.75a12,12,0,0,1-11.06,12l-11.48.9a8,8,0,0,0-6,3.49l-22.18,32.83a2.4,2.4,0,0,1-4.26-.55l-10.09-28.64a8,8,0,0,0-7.43-5.35L11.83,92.14A12,12,0,0,1,0,80.14V12A12,12,0,0,1,12,0Z" fill="#1d1b1b" fill-rule="evenodd"/><path d="M307,45.53a26.53,26.53,0,1,1-7.77-18.76A26.61,26.61,0,0,1,307,45.53Z" fill="#ffd356"/><path d="M274.07,42.31c0,3.77-1.44-1.33-3.2-1.33s-3.2,5.1-3.2,1.33,1.43-6.84,3.2-6.84S274.07,38.53,274.07,42.31Z" fill="#28241f"/><path d="M293.28,42.31c0,3.77-1.43-1.33-3.2-1.33s-3.2,5.1-3.2,1.33,1.43-6.84,3.2-6.84S293.28,38.53,293.28,42.31Z" fill="#28241f"/><path d="M264,51.93c2,7.91,8.62,13.72,16.46,13.72S294.92,59.86,296.94,52A42,42,0,0,1,264,52Z" fill="#be2026"/><path d="M263.15,52.29a1,1,0,0,1-.06-.33v0a.91.91,0,0,1,1.45-.74,40.91,40.91,0,0,0,15.93,3.21,41.1,41.1,0,0,0,16.11-3.28.91.91,0,0,1,.95.14.9.9,0,0,1,.29.92c-2.1,8.25-9,14.39-17.35,14.39S265.29,60.48,263.15,52.29Zm2.3,1.23a43,43,0,0,0,30.05,0c-2.4,6.61-8.25,11.22-15,11.22S267.85,60.13,265.45,53.52Z" fill="#1d1d1b" fill-rule="evenodd"/><path d="M280.49,59.25a39.69,39.69,0,0,0,14-2.45A17.32,17.32,0,0,0,296,52.87a40.79,40.79,0,0,1-31.1,0,17.71,17.71,0,0,0,1.53,3.93A39.68,39.68,0,0,0,280.49,59.25Z" fill="#f9f5ef"/><path d="M15.43,37.26c0-1.11.82-1.67,2.46-1.67.7,0,2,0,4,.07,2.19.11,3.84.16,5,.16.91,0,2,0,3.31-.16.89,0,1.44-.07,1.68-.07a9.09,9.09,0,0,1,3.62.78,2.36,2.36,0,0,1,.71.46,1.27,1.27,0,0,1,.27.9,2.14,2.14,0,0,1-.55,1.48,1.73,1.73,0,0,1-1.32.59,18.72,18.72,0,0,1-2.5-.24,13.92,13.92,0,0,0-2.53-.27c-.7,0-1.24,0-1.6,0q-.12,1.29-.12,6.16,0,5.82.35,11.78l.08,1.13c0,1.07-.61,1.6-1.83,1.6a2.34,2.34,0,0,1-1.95-.66A3.59,3.59,0,0,1,24,57.23q0-2.77-.16-6.9c-.1-2.29-.15-3.92-.15-4.88q0-1,.23-6l-4.56,0a7.94,7.94,0,0,1-3-.39C15.71,38.85,15.43,38.23,15.43,37.26Z" fill="#030303"/><path d="M56.87,46c0-.42,0-1,0-1.87V42.68c0-1,0-1.72-.08-2.22s-.08-1.49-.08-3.24a1.85,1.85,0,0,1,.55-1.44,2.21,2.21,0,0,1,1.56-.54,2.08,2.08,0,0,1,1.68.54,3,3,0,0,1,.42,1.79v1.49l0,4.29c0,.83,0,2.08,0,3.74l0,3.2q0,.74,0,2.07c0,.7,0,1.7.08,3s.08,2.09.08,2.69a2.31,2.31,0,0,1-.43,1.36,1.21,1.21,0,0,1-1.09.63q-2.73,0-2.73-1.83c0-.68,0-1.43.08-2.27.05-.59.08-1.5.08-2.73,0-.85,0-2.09-.08-3.7q-1.83.15-6.32.15H46.18a13,13,0,0,1-2.26-.19l0,4.49c0,.28.07,1,.2,2.3a14.28,14.28,0,0,1,.19,2.18,1.48,1.48,0,0,1-.7,1.13,2.09,2.09,0,0,1-1.25.51,2.26,2.26,0,0,1-1.91-.67,3.55,3.55,0,0,1-.51-2.1l0-3.08c0-.37,0-.87,0-1.52,0-1,0-2.28-.07-3.94s-.08-2.6-.08-3.28c0-1,0-2.43.08-4.25s.07-3,.07-3.82a1.91,1.91,0,0,1,.63-1.68,2.46,2.46,0,0,1,1.4-.43c1.46,0,2.19.48,2.19,1.45,0,1.71,0,3.35-.12,4.91-.05,2-.08,3.42-.08,4.33a13.92,13.92,0,0,0,2.38.35c.83,0,2,.08,3.51.08A49.92,49.92,0,0,0,56.87,46Z" fill="#030303"/><path d="M84.46,59.41A7,7,0,0,1,83.6,58c-.24-.54-.48-1.19-.74-1.95l-.47-1.17a7.87,7.87,0,0,0-.82-1.67,30.28,30.28,0,0,1-4,.35c-.57,0-1.21,0-1.91,0s-1.18-.08-1.52-.08c-1.3-.11-2.34-.16-3.12-.16a9.5,9.5,0,0,0-.82,1.33c-.21.47-.48,1.17-.82,2.1a16.29,16.29,0,0,1-1.21,2.89,1.46,1.46,0,0,1-1.36.59,3.61,3.61,0,0,1-1.6-.36,1.17,1.17,0,0,1-.7-1,18.74,18.74,0,0,1,1-3.12q.71-1.68,2-4.44L69,47.36q1.29-3.27,2.34-5.61t2.85-5.54a1.89,1.89,0,0,1,.78-.78,2.22,2.22,0,0,1,1.21-.35,3.25,3.25,0,0,1,1,.12.91.91,0,0,1,.55.31,4.76,4.76,0,0,1,.58.86,27.57,27.57,0,0,1,2.26,4.25c.65,1.45,1.47,3.47,2.46,6l.82,2.07q1.09,2.81,1.87,4.72a26.89,26.89,0,0,0,1.8,3.43,3.58,3.58,0,0,1,.62,1.4,1.81,1.81,0,0,1-.58,1.45,2.18,2.18,0,0,1-1.45.47A2,2,0,0,1,84.46,59.41Zm-4-9.43c-.42-.89-1-2.42-1.79-4.6a32.75,32.75,0,0,0-2.42-5.58c-.5,1.25-1.22,2.86-2.19,4.83a42.6,42.6,0,0,0-2.22,5.31,43.09,43.09,0,0,0,5.38.31A15.14,15.14,0,0,0,80.44,50Z" fill="#030303"/><path d="M107.92,38.08a3.63,3.63,0,0,1,.51-1.95,1.77,1.77,0,0,1,1.6-.86,3.46,3.46,0,0,1,1.6.36,1.21,1.21,0,0,1,.7,1.16c0,1.07,0,2.57-.16,4.49s-.15,3.26-.15,4.17c0,1.43,0,3.34.15,5.74s.16,4,.16,5c0,.85,0,1.49,0,1.91a1.78,1.78,0,0,1-.7,1.25,3.06,3.06,0,0,1-2.07.58,3.38,3.38,0,0,1-1.29-.23,1.94,1.94,0,0,1-.7-.59q-1.83-2.22-5.34-7.56-3.94-6-6.44-9.13a63.11,63.11,0,0,1,.31,6.86c0,1.2,0,2.76-.07,4.68s-.08,3.15-.16,3.75a3.27,3.27,0,0,1-.7,1.75,2.08,2.08,0,0,1-1.64.59,1.68,1.68,0,0,1-1.29-.47,3.23,3.23,0,0,1-.46-1.72c0-1.06,0-2.66.19-4.79,0-.34.06-.93.12-1.76s.08-1.57.08-2.22q0-2.7-.28-6.16c-.15-2.55-.23-4.44-.23-5.66a1.71,1.71,0,0,1,.66-1.44,2.65,2.65,0,0,1,1.6-.51,4,4,0,0,1,1.64.39Q98.88,40,104.6,48.3l3.67,5.62c0-.42,0-1,0-1.76,0-1.32,0-2.76-.08-4.29s-.09-2.57-.11-3.12Q107.92,41,107.92,38.08Z" fill="#030303"/><path d="M139,57a1.44,1.44,0,0,1,.58.5,1.46,1.46,0,0,1,.24.9,1.49,1.49,0,0,1-.59,1.21,2,2,0,0,1-1.29.43,5.57,5.57,0,0,1-2-.43,12.17,12.17,0,0,1-4.29-3.59,76.36,76.36,0,0,1-5-7.6c-1.48,1.14-3,2.21-4.52,3.19,0,.55,0,1.19,0,1.92s.07,1.22.07,1.56c.06,1.5.08,2.5.08,3a2.19,2.19,0,0,1-.43,1.28,1.48,1.48,0,0,1-1.28.59,3.18,3.18,0,0,1-1.8-.39,1.84,1.84,0,0,1-.66-1.21,23.47,23.47,0,0,1-.31-3.74q0-2,.31-5.85c.21-2.45.31-4.28.31-5.5,0-.47,0-1.15-.08-2a10.64,10.64,0,0,0-.23-2c-.1-.83-.16-1.42-.16-1.76a2.49,2.49,0,0,1,.55-1.79,2.29,2.29,0,0,1,1.68-.54,2,2,0,0,1,1.4.5A1.77,1.77,0,0,1,122.3,37c.13,2.21.2,3.91.2,5.11,0,.65-.08,1.58-.16,2.81s-.1,1.95-.15,2.26A39.5,39.5,0,0,0,127.37,43a56.77,56.77,0,0,0,5.54-5.58l.51-.59a6.35,6.35,0,0,1,1.05-1.13,2,2,0,0,1,1.17-.31,2,2,0,0,1,1.33.51,1.39,1.39,0,0,1,.62,1.13,3.78,3.78,0,0,1-1.32,2.61Q133,43,129.79,45.84,134.35,54.39,139,57Z" fill="#030303"/><path d="M170.64,37.11a4,4,0,0,1-1.21,2.06q-.85,1-3.75,5.35-2.46,3.7-3.78,5.5a54,54,0,0,0,.31,6.12q.12,1.17.12,1.68a2.5,2.5,0,0,1-.47,1.75,2.11,2.11,0,0,1-1.52.43,2.88,2.88,0,0,1-1.56-.47,1.46,1.46,0,0,1-.7-1.21q0-2-.12-7.56a4.61,4.61,0,0,0-.7-1.45,46.57,46.57,0,0,0-3.08-4.21c-1.59-2.05-2.78-3.66-3.59-4.83a5.85,5.85,0,0,1-1.17-2.73,1.46,1.46,0,0,1,.74-1.29,3,3,0,0,1,1.68-.51,2.13,2.13,0,0,1,1.83,1,22.94,22.94,0,0,1,1.21,2.11c.39.75.83,1.55,1.33,2.38a17.28,17.28,0,0,0,1.36,2l1.09,1.32c.78.94,1.17,1.42,1.17,1.45a16.49,16.49,0,0,0,2.11-2.58c.62-1,1.38-2.18,2.26-3.66l1.48-2.42.67-1a2.75,2.75,0,0,1,.82-.74,2.56,2.56,0,0,1,1.28-.27,2.66,2.66,0,0,1,1.44.43A1.4,1.4,0,0,1,170.64,37.11Z" fill="#030303"/><path d="M185.66,60a16.67,16.67,0,0,1-4.71-.63,9.08,9.08,0,0,1-3.52-1.91,12.72,12.72,0,0,1-3.51-4.83,19.85,19.85,0,0,1-1-6.75,5.52,5.52,0,0,1,.23-1.6c.19-.52.42-1.09.71-1.71.07-.19.19-.47.35-.86a4.64,4.64,0,0,0,.35-1.13A8.09,8.09,0,0,1,177.08,38,16.87,16.87,0,0,1,181,36a10.38,10.38,0,0,1,3.62-.77q7.53,0,10.77,5.14a11.52,11.52,0,0,1,1.83,6,15.64,15.64,0,0,1-1.44,6.9,11,11,0,0,1-3.9,4.6,17.6,17.6,0,0,1-3.2,1.52A8.92,8.92,0,0,1,185.66,60ZM177,48.81a6.07,6.07,0,0,0,.89,3.55,15.77,15.77,0,0,0,3,3c1,.39,1.76.65,2.18.78a4.56,4.56,0,0,0,1.36.19,9.33,9.33,0,0,0,4.49-1,7.44,7.44,0,0,0,3-2.88,7.86,7.86,0,0,0,1.09-4.1,13.37,13.37,0,0,0-.66-4.68A7.3,7.3,0,0,0,190,40.54a5.6,5.6,0,0,0-2.3-1.09,11.4,11.4,0,0,0-2.92-.35A7,7,0,0,0,179,41.75,11,11,0,0,0,177,48.81Z" fill="#030303"/><path d="M206.05,37.38c0,.75,0,1.75-.08,3l0,2.54a29.17,29.17,0,0,0,.55,6.2,12.93,12.93,0,0,0,2.34,5.42,4.49,4.49,0,0,0,3.55,1.68,4.72,4.72,0,0,0,2.92-1,6.89,6.89,0,0,0,2-2.49,13.66,13.66,0,0,0,1.17-6q0-2.14-.27-5.07c-.16-2.19-.24-3.82-.24-4.92,0-.57.34-.93,1-1.09a8.06,8.06,0,0,1,2.1-.27,1.4,1.4,0,0,1,.9.51,1.51,1.51,0,0,1,.51,1.09,19.57,19.57,0,0,1-.12,2.22c0,.78-.08,1.33-.08,1.64,0,1,0,2.37.16,4.13,0,.45,0,1,.08,1.6s0,1.34,0,2.15a12,12,0,0,1-1.29,5.3,11.6,11.6,0,0,1-3.51,4.33,8.36,8.36,0,0,1-5.11,1.68,8.62,8.62,0,0,1-6.83-2.81,15.8,15.8,0,0,1-3.35-7.33,38.22,38.22,0,0,1-.66-5.38c-.08-1.88-.12-4.38-.12-7.53a1.59,1.59,0,0,1,.59-1.17,1.93,1.93,0,0,1,1.32-.55Q206.05,35.31,206.05,37.38Z" fill="#030303"/><path d="M232,37.38c0,1.4-.08,3.46-.24,6.16s-.23,4.59-.23,6c0,.36,0,1.12.08,2.26a1.37,1.37,0,0,1-.47,1,1.73,1.73,0,0,1-1,.31,2.15,2.15,0,0,1-1.13-.31,1.33,1.33,0,0,1-.63-.82,54.07,54.07,0,0,1-.47-7.65l0-6.08a6.63,6.63,0,0,1,.35-2.34,1.58,1.58,0,0,1,1.64-.94,1.82,1.82,0,0,1,1.56.7A2.77,2.77,0,0,1,232,37.38Zm-2.07,17.75c1.77,0,2.65.66,2.65,2a3,3,0,0,1-.66,1.88,1.94,1.94,0,0,1-1.6.81,2.65,2.65,0,0,1-1.91-.7,2.35,2.35,0,0,1-.74-1.71,2.31,2.31,0,0,1,.62-1.56A2.16,2.16,0,0,1,229.88,55.13Z" fill="#030303"/></g></g></svg>